<!DOCTYPE svg PUBLIC "-//W3C//DTD SVG 20010904//EN" "http://www.w3.org/TR/2001/REC-SVG-20010904/DTD/svg10.dtd">
<svg version="1.0" xmlns="http://www.w3.org/2000/svg" width="992px" height="844px" viewBox="0 0 9920 8440" preserveAspectRatio="xMidYMid meet">
<g id="layer101" fill="#eeb51b" stroke="none">
 <path d="M3725 8134 c-158 -24 -411 -78 -425 -91 -2 -2 8 -14 22 -26 260 -219 357 -288 494 -354 242 -115 469 -116 692 -4 42 21 88 48 102 59 l25 20 -49 71 c-98 144 -248 252 -416 301 -61 18 -107 23 -245 25 -93 2 -183 1 -200 -1z"/>
 <path d="M5780 8123 c-213 -36 -399 -152 -516 -324 l-49 -70 25 -19 c42 -33 137 -80 213 -107 105 -37 290 -44 408 -14 105 26 277 111 391 193 92 67 297 239 298 250 0 9 -240 65 -357 83 -94 14 -349 19 -413 8z"/>
 <path d="M1280 8033 c0 -16 22 -89 35 -118 7 -16 16 -47 20 -67 4 -21 11 -38 15 -38 4 0 13 -22 20 -50 6 -27 20 -66 31 -87 10 -20 19 -44 19 -53 0 -8 7 -23 15 -33 7 -10 19 -41 25 -68 7 -27 15 -49 20 -49 4 0 13 -21 20 -47 8 -27 17 -50 21 -53 4 -3 10 -17 14 -31 6 -23 1 -30 -32 -50 -21 -13 -61 -40 -89 -61 -28 -21 -54 -38 -58 -38 -4 0 -22 -11 -40 -25 -36 -27 -195 -125 -205 -125 -11 -1 -51 -38 -51 -48 0 -6 24 -19 53 -30 28 -11 84 -32 122 -47 111 -42 485 -132 563 -136 15 -1 -11 -5 -57 -10 -232 -22 -446 -143 -719 -404 -67 -64 -122 -123 -122 -129 0 -28 377 -71 550 -63 256 13 415 75 560 220 66 65 70 67 118 67 76 0 83 -5 67 -43 -23 -56 -45 -184 -45 -265 0 -177 62 -397 182 -644 39 -82 75 -148 79 -148 13 0 179 347 214 449 41 121 65 246 65 341 0 70 -20 193 -39 244 -11 27 -10 28 11 22 13 -3 48 -6 79 -6 l56 0 7 -127 c7 -144 35 -374 46 -386 11 -12 276 255 345 348 33 44 67 91 75 103 l15 24 316 -16 c550 -28 2449 -22 2884 9 l80 6 19 -33 c42 -72 117 -160 260 -305 82 -84 153 -153 156 -153 4 0 10 24 14 53 21 157 36 321 36 388 l0 76 46 7 c47 6 114 8 114 4 0 -2 -9 -31 -20 -64 -44 -141 -33 -333 30 -524 29 -90 180 -412 213 -454 13 -18 19 -10 80 115 75 154 125 286 158 414 20 76 24 114 23 245 0 139 -3 163 -26 231 l-25 77 62 6 62 6 84 -83 c99 -97 201 -153 344 -189 129 -31 380 -31 595 1 85 13 159 26 163 30 13 12 -260 269 -364 343 -153 110 -311 179 -439 194 -33 4 -60 10 -60 14 0 4 41 15 91 25 150 27 398 91 499 129 147 54 160 60 160 72 0 9 -51 42 -213 139 -19 11 -50 32 -70 48 -20 15 -39 27 -42 27 -4 0 -33 20 -65 45 -32 25 -63 45 -69 45 -5 0 -13 5 -16 11 -9 13 15 100 24 94 4 -2 13 18 20 45 7 28 16 50 21 50 4 0 10 13 13 30 4 16 15 49 26 72 10 24 24 62 30 85 6 23 15 45 20 47 5 3 12 23 16 43 3 21 12 47 19 58 7 11 18 42 25 70 7 27 16 54 21 60 4 5 11 25 15 43 8 40 4 41 -105 2 -176 -62 -459 -126 -770 -174 -258 -39 -399 -50 -620 -47 -482 6 -492 6 -560 -12 -149 -39 -309 -144 -399 -261 -39 -50 -43 -60 -33 -77 7 -10 11 -19 10 -19 -2 0 -93 -5 -204 -10 -165 -8 -209 -7 -248 5 -76 23 -213 38 -282 30 -59 -6 -64 -8 -64 -31 l0 -24 -415 0 -415 0 0 29 c0 27 -2 28 -62 34 -75 7 -205 -6 -273 -27 -54 -17 -176 -20 -363 -9 l-113 6 20 21 20 21 -58 71 c-184 223 -446 309 -792 259 -137 -19 -271 -17 -519 10 -215 24 -547 82 -745 131 -90 22 -289 86 -299 95 -12 11 -46 12 -46 2z"/>
 <path d="M4845 7781 c-72 -33 -105 -86 -105 -167 0 -59 19 -103 63 -141 88 -77 232 -49 288 57 36 66 17 172 -38 222 -53 48 -141 60 -208 29z"/>
 <path d="M1707 6053 c-25 -43 -59 -114 -74 -158 -25 -73 -28 -92 -28 -225 0 -121 4 -158 23 -225 27 -95 110 -271 177 -375 56 -87 197 -279 206 -280 3 0 25 62 48 138 148 489 127 781 -73 1024 -54 66 -191 178 -217 178 -8 0 -36 -35 -62 -77z"/>
 <path d="M8025 6087 c-139 -96 -241 -230 -292 -382 -26 -75 -27 -91 -27 -265 0 -167 2 -196 27 -302 29 -122 94 -338 106 -350 9 -10 167 204 241 328 71 119 121 237 150 350 25 96 27 269 4 364 -16 71 -90 230 -126 272 l-23 27 -60 -42z"/>
 <path d="M1205 6086 c-266 -53 -500 -247 -737 -611 l-58 -90 87 -3 c123 -5 333 15 457 43 285 65 458 189 569 411 30 59 82 213 74 220 -1 1 -32 9 -68 18 -94 23 -239 28 -324 12z"/>
 <path d="M8420 6084 c-14 -3 -57 -11 -97 -20 l-71 -15 19 -72 c100 -364 369 -551 859 -596 118 -11 310 -15 310 -6 0 23 -209 309 -294 402 -125 137 -299 250 -441 288 -60 16 -238 28 -285 19z"/>
 <path d="M3857 5710 c-83 -16 -136 -109 -123 -212 8 -61 24 -94 63 -129 41 -38 84 -49 198 -49 l102 0 11 -39 c7 -21 12 -40 12 -42 0 -2 -25 -5 -56 -6 -117 -5 -233 -87 -268 -190 -35 -101 -12 -198 61 -264 33 -30 42 -46 52 -98 7 -33 19 -77 26 -96 8 -19 15 -36 15 -39 0 -2 -28 5 -62 16 -82 25 -273 21 -358 -8 -76 -26 -166 -89 -216 -151 -177 -218 -88 -624 165 -751 49 -24 56 -32 56 -58 1 -16 4 -48 8 -71 l7 -42 -33 19 c-43 25 -122 28 -165 6 -40 -21 -87 -92 -108 -162 -18 -61 -21 -203 -5 -259 16 -61 71 -146 118 -181 56 -43 149 -77 190 -70 29 4 34 2 39 -22 12 -49 42 -96 91 -144 77 -75 203 -143 203 -109 0 5 -6 27 -14 49 -27 76 -38 228 -34 495 3 258 3 263 -21 310 -30 62 -103 136 -172 176 l-54 31 60 0 c33 0 106 11 163 25 57 14 105 25 108 25 2 0 4 -263 4 -584 l0 -584 -62 20 c-190 59 -355 -12 -403 -174 -17 -57 -20 -178 -5 -178 5 0 19 14 32 30 21 29 25 30 98 30 47 0 135 -12 226 -31 127 -26 165 -30 259 -27 123 4 146 13 209 75 49 49 83 125 97 216 10 72 5 896 -7 1115 -6 101 -6 102 -32 108 -71 14 -103 27 -178 73 -99 61 -163 124 -216 213 -57 96 -62 99 -101 52 -152 -182 -270 -232 -404 -169 -64 29 -137 102 -153 151 -19 58 -8 179 22 246 70 151 218 238 406 238 147 0 265 -45 358 -135 99 -98 131 -205 108 -363 -16 -106 -16 -102 -4 -102 42 0 66 213 36 328 -9 35 -16 65 -16 66 0 4 233 113 255 120 16 4 23 -2 37 -36 15 -35 20 -39 33 -28 8 7 15 19 15 26 0 12 -54 150 -124 315 l-15 36 100 16 c122 20 193 53 251 115 65 69 91 143 91 262 1 159 -50 283 -168 409 -56 59 -210 181 -230 181 -4 0 -48 -23 -99 -51 l-91 -52 -85 46 c-133 71 -204 87 -303 67z m168 -61 c65 -24 145 -67 145 -78 0 -10 -123 -66 -175 -80 -94 -25 -172 -6 -194 47 -16 39 -5 77 31 107 38 32 114 34 193 4z m602 -197 c66 -98 87 -162 88 -267 0 -80 -3 -96 -30 -150 -24 -47 -41 -66 -79 -90 -46 -28 -58 -30 -160 -33 -127 -4 -136 0 -158 68 l-15 45 133 0 c118 0 135 2 160 21 44 32 66 68 71 117 11 97 -28 175 -123 247 -30 22 -52 45 -49 51 9 13 98 59 110 55 6 -1 29 -30 52 -64z m-194 -77 c52 -62 69 -104 54 -135 -17 -34 -59 -42 -167 -30 -137 15 -135 14 -154 63 -20 54 -20 67 2 67 9 0 60 18 112 39 52 22 100 39 105 40 6 1 28 -19 48 -44z m-250 -344 c20 -8 57 -70 57 -96 0 -2 -41 -4 -91 -4 -114 0 -168 -22 -209 -87 l-27 -43 -18 39 c-30 66 6 138 87 179 46 23 155 29 201 12z m106 -304 c41 -11 46 -16 70 -71 l25 -59 -39 -34 c-51 -44 -135 -84 -188 -90 -81 -9 -156 73 -142 157 7 44 37 87 69 100 30 12 153 10 205 -3z m-200 -1018 c32 -35 41 -99 41 -297 l0 -189 -25 -11 c-40 -18 -71 -14 -102 12 l-28 24 -3 224 -3 223 28 17 c38 23 68 22 92 -3z m-601 -260 l57 -30 7 28 c5 20 6 16 3 -15 -4 -53 -35 -89 -81 -98 -50 -9 -72 2 -80 42 -8 42 -19 43 -43 3 -40 -65 -35 -185 10 -225 17 -15 36 -19 99 -19 l78 0 -30 -19 c-16 -11 -51 -21 -77 -24 -43 -4 -52 -1 -85 28 -49 44 -66 79 -66 139 0 99 70 221 126 221 14 0 50 -14 82 -31z m580 -302 l62 3 0 -121 0 -121 -22 8 c-13 4 -49 7 -80 7 l-58 -1 0 120 c0 111 1 119 18 112 9 -5 45 -8 80 -7z m29 -308 l35 -22 -4 -133 c-3 -125 -4 -134 -28 -159 -21 -22 -31 -25 -75 -23 l-50 3 -3 160 -2 160 37 17 c50 21 50 21 90 -3z"/>
 <path d="M5911 5675 c-36 -42 -66 -104 -77 -161 l-7 -36 -113 113 -114 113 -47 -34 c-166 -117 -234 -159 -248 -154 -30 12 -37 42 -24 99 14 64 2 88 -40 83 -25 -3 -26 -5 -26 -73 0 -68 3 -76 88 -249 48 -98 87 -182 87 -187 0 -5 -15 -30 -34 -57 -172 -239 -164 -536 20 -732 66 -70 121 -94 229 -98 117 -5 192 23 311 113 9 6 25 -4 55 -38 41 -47 103 -87 134 -87 12 0 5 16 -25 61 -50 72 -69 117 -79 180 -4 27 -4 232 0 456 6 327 11 418 24 461 9 28 19 52 22 52 4 0 16 -9 28 -20 22 -20 22 -20 40 0 17 19 16 21 -41 86 -33 36 -75 84 -94 106 l-36 40 -33 -37z m-81 -371 l0 -74 -194 0 -194 0 -26 46 c-14 26 -26 49 -26 53 0 3 69 48 153 99 l152 93 68 -71 67 -72 0 -74z m-230 -596 c-35 -29 -77 -18 -122 33 l-38 42 0 -35 c0 -55 44 -131 91 -157 34 -19 52 -23 109 -19 68 4 68 3 83 -28 15 -31 15 -31 -21 -49 -21 -10 -70 -20 -109 -23 -64 -4 -79 -2 -128 23 -161 78 -222 315 -130 508 13 29 39 69 57 91 l32 39 100 -202 101 -202 -25 -21z m220 135 c-1 -195 -3 -233 -18 -260 l-17 -32 -131 260 -131 259 148 0 149 0 0 -227z"/>
 <path d="M4983 5657 c-15 -18 -43 -56 -62 -85 l-33 -52 59 -77 c33 -42 64 -78 70 -80 6 -2 37 34 71 81 l60 85 -68 80 -68 81 -29 -33z"/>
 <path d="M1051 5359 c-280 -47 -495 -241 -714 -644 -77 -141 -89 -175 -59 -175 37 0 267 42 365 66 361 91 575 259 661 523 28 84 52 209 42 218 -20 20 -202 27 -295 12z"/>
 <path d="M8550 5352 l-45 -7 3 -45 c9 -144 88 -323 190 -431 111 -119 230 -188 427 -248 143 -43 457 -102 472 -88 3 3 -26 66 -65 141 -242 465 -491 670 -827 681 -60 2 -130 0 -155 -3z"/>
 <path d="M1390 5118 c-142 -315 -92 -602 163 -938 86 -113 267 -304 278 -293 4 4 20 80 35 168 24 137 28 187 29 355 0 220 -13 287 -82 428 -59 120 -195 252 -330 321 -23 11 -47 21 -53 21 -6 0 -24 -28 -40 -62z"/>
 <path d="M8365 5147 c-214 -115 -346 -285 -397 -512 -22 -100 -16 -393 11 -550 12 -71 27 -150 33 -173 l11 -44 69 69 c159 156 291 333 364 487 66 140 79 199 78 356 0 120 -3 144 -27 215 -15 44 -40 103 -55 132 l-27 52 -60 -32z"/>
 <path d="M1018 4619 c-330 -92 -525 -344 -598 -773 -19 -114 -43 -366 -36 -373 6 -7 60 23 181 99 142 90 253 178 341 269 160 168 224 316 224 527 0 94 -22 248 -38 263 -4 4 -37 -2 -74 -12z"/>
 <path d="M8750 4592 c-21 -81 -30 -148 -30 -231 1 -324 187 -571 636 -840 58 -35 108 -61 111 -57 9 9 -16 267 -38 388 -72 405 -252 647 -555 746 -113 37 -112 37 -124 -6z"/>
 <path d="M1182 4153 c-27 -85 -36 -211 -24 -309 35 -279 211 -506 588 -759 61 -41 116 -75 123 -75 24 0 -3 354 -41 530 -52 244 -159 414 -335 530 -66 44 -194 98 -269 114 -28 6 -31 4 -42 -31z"/>
 <path d="M8538 4146 c-119 -41 -192 -83 -275 -160 -139 -128 -224 -317 -262 -576 -13 -82 -32 -402 -25 -409 15 -16 300 188 414 296 199 187 295 369 307 584 7 124 -22 299 -50 299 -7 0 -56 -15 -109 -34z"/>
 <path d="M6124 4086 c-14 -11 -16 -25 -12 -92 8 -115 44 -209 152 -394 31 -52 56 -98 56 -103 0 -5 -12 0 -27 11 -62 43 -105 61 -125 51 -16 -9 -18 -24 -17 -187 1 -97 4 -217 8 -267 l6 -90 90 -45 c70 -35 108 -62 169 -123 48 -48 82 -75 88 -69 5 5 16 36 24 68 19 72 53 124 66 101 4 -9 11 -50 15 -91 7 -87 22 -118 46 -97 9 7 18 25 22 40 12 54 -60 282 -134 429 -34 68 -29 75 32 42 20 -11 50 -20 67 -20 l30 0 0 285 c0 255 -2 285 -16 285 -56 0 -220 124 -271 205 -32 52 -60 59 -69 18 -25 -113 -50 -159 -90 -169 -43 -11 -57 17 -49 97 3 37 3 78 0 92 -8 29 -37 40 -61 23z m338 -569 c-5 -85 -6 -88 -23 -70 -10 10 -47 65 -83 123 l-66 105 60 5 c44 4 65 11 82 28 l23 23 6 -63 c3 -35 4 -103 1 -151z m-41 -184 c34 -40 101 -172 92 -185 -5 -9 -110 -77 -130 -85 -10 -4 -13 25 -13 151 0 86 4 156 9 156 5 0 24 -17 42 -37z"/>
 <path d="M5755 3988 c-43 -56 -82 -107 -86 -112 -4 -5 -20 17 -36 48 -21 44 -32 56 -48 54 -34 -5 -30 -44 12 -111 l38 -62 0 -140 c0 -77 1 -258 3 -401 l2 -262 23 -6 c13 -3 44 -24 70 -46 57 -50 103 -70 163 -70 65 0 100 24 135 95 22 45 31 80 36 141 7 103 -4 127 -144 305 -96 121 -103 134 -103 175 0 73 60 224 89 224 4 0 31 -43 60 -96 56 -100 73 -116 97 -92 12 12 -1 42 -101 228 -64 118 -119 218 -124 223 -5 5 -42 -36 -86 -95z m140 -763 c-60 -170 -58 -170 -67 5 -5 85 -6 165 -3 178 5 21 10 17 52 -40 l46 -63 -28 -80z"/>
 <path d="M5264 4003 c-17 -21 -48 -68 -70 -105 -21 -37 -42 -68 -45 -68 -3 0 -14 16 -25 35 -18 35 -54 48 -54 21 0 -8 10 -45 23 -82 22 -68 22 -77 18 -450 l-3 -381 35 -7 c50 -9 107 -54 158 -125 25 -34 52 -61 62 -61 11 0 25 18 42 55 19 45 28 55 48 55 30 0 37 -20 29 -87 -5 -48 -5 -48 16 -30 84 75 83 297 -3 377 -51 48 -133 16 -167 -64 l-13 -31 -7 40 c-4 22 -7 139 -7 260 -1 196 1 228 20 291 23 77 58 132 77 120 7 -4 31 -41 53 -82 36 -65 43 -73 60 -64 10 6 19 14 19 18 -1 14 -218 396 -227 399 -5 2 -23 -14 -39 -34z"/>
 <path d="M4655 4016 c-16 -8 -65 -49 -107 -92 l-77 -79 -4 -365 c-2 -201 -7 -377 -12 -392 -7 -26 -4 -29 39 -48 71 -30 165 -97 231 -165 l60 -62 105 16 c145 22 146 22 119 96 -19 53 -22 88 -26 290 -4 187 5 453 19 560 4 24 -206 219 -258 241 -41 17 -51 17 -89 0z m125 -519 l0 -334 -55 -59 -56 -59 3 316 4 316 49 76 c28 42 51 77 53 77 1 0 2 -150 2 -333z"/>
 <path d="M994 3666 c-69 -47 -172 -153 -213 -220 -81 -135 -112 -259 -112 -453 0 -147 17 -268 62 -438 47 -177 53 -195 64 -192 17 5 141 164 216 276 86 127 130 214 171 334 41 119 50 282 23 403 -17 77 -94 243 -138 296 l-23 28 -50 -34z"/>
 <path d="M8762 3628 c-176 -270 -175 -564 0 -873 71 -125 277 -405 298 -405 9 0 60 179 90 315 95 440 5 769 -268 974 -37 28 -70 51 -73 51 -4 0 -25 -28 -47 -62z"/>
 <path d="M1427 3033 c-4 -6 -2 -58 3 -116 18 -192 83 -331 214 -463 94 -94 183 -154 339 -230 100 -48 406 -158 415 -150 1 2 -22 80 -52 172 -177 537 -412 767 -807 791 -68 4 -108 2 -112 -4z"/>
 <path d="M8218 3020 c-345 -59 -547 -283 -718 -800 -37 -112 -45 -146 -34 -148 24 -6 285 87 403 144 363 173 532 393 557 724 l7 90 -84 -1 c-46 -1 -105 -5 -131 -9z"/>
 <path d="M1260 2648 c-221 -254 -257 -543 -114 -926 31 -83 153 -337 183 -382 13 -19 156 273 205 420 95 284 85 523 -31 719 -34 58 -176 221 -192 221 -3 0 -26 -23 -51 -52z"/>
 <path d="M8463 2616 c-238 -249 -272 -550 -111 -958 42 -106 150 -321 164 -325 12 -4 138 243 184 360 114 291 119 548 15 762 -39 82 -144 223 -171 232 -6 2 -43 -30 -81 -71z"/>
 <path d="M1685 2097 c-20 -212 55 -422 208 -583 91 -97 177 -163 316 -243 100 -58 338 -168 346 -160 2 2 -9 66 -25 141 -74 358 -160 550 -314 704 -123 122 -269 189 -458 209 l-66 7 -7 -75z"/>
 <path d="M7995 2140 c-141 -30 -259 -94 -360 -194 -120 -118 -196 -260 -260 -481 -32 -112 -82 -352 -74 -360 9 -8 214 85 329 150 258 145 436 330 499 521 36 108 52 268 35 353 -6 28 -10 31 -43 30 -20 0 -76 -9 -126 -19z"/>
 <path d="M3836 1939 c-9 -43 -26 -155 -26 -171 0 -24 321 -83 675 -125 191 -22 758 -25 940 -5 230 26 642 106 668 131 7 7 -16 177 -26 187 -2 3 -31 -2 -63 -10 -156 -40 -430 -79 -679 -97 -193 -13 -730 -7 -890 11 -197 22 -470 67 -572 96 -18 5 -23 1 -27 -17z"/>
 <path d="M6030 1649 c-105 -31 -343 -77 -510 -99 -225 -31 -669 -38 -925 -16 -261 23 -641 81 -791 122 -19 5 -24 -4 -53 -87 -57 -162 -138 -309 -237 -425 -39 -46 -49 -52 -94 -58 -39 -5 -60 -15 -90 -42 -48 -44 -62 -88 -50 -156 20 -106 85 -146 222 -139 32 2 97 70 109 114 14 51 4 118 -22 151 l-21 26 25 43 c36 60 137 153 199 182 169 79 324 -42 336 -262 4 -74 3 -83 -14 -89 -77 -25 -109 -66 -108 -144 0 -95 44 -136 149 -141 55 -3 61 -1 95 33 57 54 64 136 18 201 -25 35 -20 57 32 134 119 178 304 202 445 58 71 -74 135 -227 135 -326 0 -32 -5 -39 -49 -66 -73 -46 -106 -107 -105 -198 0 -47 6 -81 18 -104 85 -161 337 -161 422 0 12 23 18 57 18 104 1 91 -32 152 -105 198 -44 27 -49 34 -49 66 0 99 64 252 135 326 141 144 326 120 445 -58 52 -77 57 -99 32 -134 -46 -65 -39 -147 18 -201 34 -34 40 -36 95 -33 105 5 149 46 149 141 1 78 -31 119 -108 144 -17 6 -18 15 -14 89 12 220 167 341 336 262 62 -29 163 -122 199 -182 l25 -43 -21 -26 c-26 -33 -36 -100 -22 -151 12 -44 77 -112 109 -114 137 -7 202 33 222 139 12 68 -2 112 -50 156 -30 27 -51 37 -90 42 -45 6 -55 12 -94 58 -100 119 -192 285 -243 443 -30 93 -25 90 -123 62z"/>
 </g>
<g id="layer102" fill="#271e07" stroke="none">
 <path d="M1280 8033 c0 -16 22 -89 35 -118 7 -16 16 -47 20 -67 4 -21 11 -38 15 -38 4 0 13 -22 20 -50 6 -27 20 -66 31 -87 10 -20 19 -44 19 -53 0 -8 7 -23 15 -33 7 -10 19 -41 25 -68 7 -27 15 -49 20 -49 4 0 13 -21 20 -47 8 -27 17 -50 21 -53 4 -3 10 -17 14 -31 6 -23 1 -30 -32 -50 -21 -13 -61 -40 -89 -61 -28 -21 -54 -38 -58 -38 -4 0 -22 -11 -40 -25 -36 -27 -195 -125 -205 -125 -11 -1 -51 -38 -51 -48 0 -6 24 -19 53 -30 28 -11 84 -32 122 -47 87 -33 291 -85 450 -115 66 -12 127 -25 136 -29 15 -5 14 -16 -7 -110 -13 -58 -22 -112 -19 -121 9 -27 47 -39 167 -51 62 -6 116 -16 119 -20 3 -5 46 -10 95 -10 49 -1 179 -10 289 -21 230 -23 242 -24 510 -38 110 -6 232 -15 270 -21 209 -28 676 -39 1720 -38 1077 0 1287 5 1751 43 99 8 252 17 338 21 87 3 162 7 167 10 13 9 326 36 404 36 39 0 104 6 145 14 41 7 128 19 193 26 85 8 124 16 140 29 l22 18 -22 106 c-12 59 -20 113 -17 120 3 9 40 21 96 31 149 27 397 91 498 129 147 54 160 60 160 72 0 9 -51 42 -213 139 -19 11 -50 32 -70 48 -20 15 -39 27 -42 27 -4 0 -33 20 -65 45 -32 25 -63 45 -69 45 -5 0 -13 5 -16 11 -9 13 15 100 24 94 4 -2 13 18 20 45 7 28 16 50 21 50 4 0 10 13 13 30 4 16 15 49 26 72 10 24 24 62 30 85 6 23 15 45 20 47 5 3 12 23 16 43 3 21 12 47 19 58 7 11 18 42 25 70 7 27 16 54 21 60 4 5 11 25 15 43 8 40 4 41 -105 2 -166 -59 -411 -116 -715 -165 -246 -41 -427 -57 -677 -60 -229 -3 -240 -4 -292 -28 -30 -14 -62 -36 -70 -50 -10 -14 -23 -73 -31 -142 -8 -65 -16 -119 -18 -121 -7 -8 -364 -26 -597 -30 -146 -2 -301 -9 -345 -14 -102 -13 -1620 -13 -1643 -1 -10 5 -146 12 -302 15 -268 6 -618 23 -631 31 -3 2 -12 57 -19 122 -13 116 -14 119 -50 154 -47 45 -111 64 -189 56 -62 -7 -336 6 -516 24 -212 20 -589 85 -790 135 -91 23 -289 86 -299 95 -12 11 -46 12 -46 2z"/>
 <path d="M3857 5710 c-83 -16 -136 -109 -123 -212 8 -61 24 -94 63 -129 41 -38 84 -49 198 -49 l102 0 11 -39 c7 -21 12 -40 12 -42 0 -2 -25 -5 -56 -6 -117 -5 -233 -87 -268 -190 -35 -101 -12 -198 61 -264 33 -30 42 -46 52 -98 7 -33 19 -77 26 -96 8 -19 15 -36 15 -39 0 -2 -28 5 -62 16 -82 25 -273 21 -358 -8 -76 -26 -166 -89 -216 -151 -177 -218 -88 -624 165 -751 49 -24 56 -32 56 -58 1 -16 4 -48 8 -71 l7 -42 -33 19 c-43 25 -122 28 -165 6 -40 -21 -87 -92 -108 -162 -18 -61 -21 -203 -5 -259 16 -61 71 -146 118 -181 56 -43 149 -77 190 -70 29 4 34 2 39 -22 12 -49 42 -96 91 -144 77 -75 203 -143 203 -109 0 5 -6 27 -14 49 -27 76 -38 228 -34 495 3 258 3 263 -21 310 -30 62 -103 136 -172 176 l-54 31 60 0 c33 0 106 11 163 25 57 14 105 25 108 25 2 0 4 -263 4 -584 l0 -584 -62 20 c-190 59 -355 -12 -403 -174 -17 -57 -20 -178 -5 -178 5 0 19 14 32 30 21 29 25 30 98 30 47 0 135 -12 226 -31 127 -26 165 -30 259 -27 123 4 146 13 209 75 49 49 83 125 97 216 10 72 5 896 -7 1115 -6 101 -6 102 -32 108 -71 14 -103 27 -178 73 -99 61 -163 124 -216 213 -57 96 -62 99 -101 52 -152 -182 -270 -232 -404 -169 -64 29 -137 102 -153 151 -19 58 -8 179 22 246 70 151 218 238 406 238 147 0 265 -45 358 -135 99 -98 131 -205 108 -363 -16 -106 -16 -102 -4 -102 42 0 66 213 36 328 -9 35 -16 65 -16 66 0 4 233 113 255 120 16 4 23 -2 37 -36 15 -35 20 -39 33 -28 8 7 15 19 15 26 0 12 -54 150 -124 315 l-15 36 100 16 c122 20 193 53 251 115 65 69 91 143 91 262 1 159 -50 283 -168 409 -56 59 -210 181 -230 181 -4 0 -48 -23 -99 -51 l-91 -52 -85 46 c-133 71 -204 87 -303 67z m168 -61 c65 -24 145 -67 145 -78 0 -10 -123 -66 -175 -80 -94 -25 -172 -6 -194 47 -16 39 -5 77 31 107 38 32 114 34 193 4z m602 -197 c66 -98 87 -162 88 -267 0 -80 -3 -96 -30 -150 -24 -47 -41 -66 -79 -90 -46 -28 -58 -30 -160 -33 -127 -4 -136 0 -158 68 l-15 45 133 0 c118 0 135 2 160 21 44 32 66 68 71 117 11 97 -28 175 -123 247 -30 22 -52 45 -49 51 9 13 98 59 110 55 6 -1 29 -30 52 -64z m-194 -77 c52 -62 69 -104 54 -135 -17 -34 -59 -42 -167 -30 -137 15 -135 14 -154 63 -20 54 -20 67 2 67 9 0 60 18 112 39 52 22 100 39 105 40 6 1 28 -19 48 -44z m-250 -344 c20 -8 57 -70 57 -96 0 -2 -41 -4 -91 -4 -114 0 -168 -22 -209 -87 l-27 -43 -18 39 c-30 66 6 138 87 179 46 23 155 29 201 12z m106 -304 c41 -11 46 -16 70 -71 l25 -59 -39 -34 c-51 -44 -135 -84 -188 -90 -81 -9 -156 73 -142 157 7 44 37 87 69 100 30 12 153 10 205 -3z m-200 -1018 c32 -35 41 -99 41 -297 l0 -189 -25 -11 c-40 -18 -71 -14 -102 12 l-28 24 -3 224 -3 223 28 17 c38 23 68 22 92 -3z m-601 -260 l57 -30 7 28 c5 20 6 16 3 -15 -4 -53 -35 -89 -81 -98 -50 -9 -72 2 -80 42 -8 42 -19 43 -43 3 -40 -65 -35 -185 10 -225 17 -15 36 -19 99 -19 l78 0 -30 -19 c-16 -11 -51 -21 -77 -24 -43 -4 -52 -1 -85 28 -49 44 -66 79 -66 139 0 99 70 221 126 221 14 0 50 -14 82 -31z m580 -302 l62 3 0 -121 0 -121 -22 8 c-13 4 -49 7 -80 7 l-58 -1 0 120 c0 111 1 119 18 112 9 -5 45 -8 80 -7z m29 -308 l35 -22 -4 -133 c-3 -125 -4 -134 -28 -159 -21 -22 -31 -25 -75 -23 l-50 3 -3 160 -2 160 37 17 c50 21 50 21 90 -3z"/>
 <path d="M5911 5675 c-36 -42 -66 -104 -77 -161 l-7 -36 -113 113 -114 113 -47 -34 c-166 -117 -234 -159 -248 -154 -30 12 -37 42 -24 99 14 64 2 88 -40 83 -25 -3 -26 -5 -26 -73 0 -68 3 -76 88 -249 48 -98 87 -182 87 -187 0 -5 -15 -30 -34 -57 -172 -239 -164 -536 20 -732 66 -70 121 -94 229 -98 117 -5 192 23 311 113 9 6 25 -4 55 -38 41 -47 103 -87 134 -87 12 0 5 16 -25 61 -50 72 -69 117 -79 180 -4 27 -4 232 0 456 6 327 11 418 24 461 9 28 19 52 22 52 4 0 16 -9 28 -20 22 -20 22 -20 40 0 17 19 16 21 -41 86 -33 36 -75 84 -94 106 l-36 40 -33 -37z m-81 -371 l0 -74 -194 0 -194 0 -26 46 c-14 26 -26 49 -26 53 0 3 69 48 153 99 l152 93 68 -71 67 -72 0 -74z m-230 -596 c-35 -29 -77 -18 -122 33 l-38 42 0 -35 c0 -55 44 -131 91 -157 34 -19 52 -23 109 -19 68 4 68 3 83 -28 15 -31 15 -31 -21 -49 -21 -10 -70 -20 -109 -23 -64 -4 -79 -2 -128 23 -161 78 -222 315 -130 508 13 29 39 69 57 91 l32 39 100 -202 101 -202 -25 -21z m220 135 c-1 -195 -3 -233 -18 -260 l-17 -32 -131 260 -131 259 148 0 149 0 0 -227z"/>
 <path d="M4983 5657 c-15 -18 -43 -56 -62 -85 l-33 -52 59 -77 c33 -42 64 -78 70 -80 6 -2 37 34 71 81 l60 85 -68 80 -68 81 -29 -33z"/>
 <path d="M6124 4086 c-14 -11 -16 -25 -12 -92 8 -115 44 -209 152 -394 31 -52 56 -98 56 -103 0 -5 -12 0 -27 11 -62 43 -105 61 -125 51 -16 -9 -18 -24 -17 -187 1 -97 4 -217 8 -267 l6 -90 90 -45 c70 -35 108 -62 169 -123 48 -48 82 -75 88 -69 5 5 16 36 24 68 19 72 53 124 66 101 4 -9 11 -50 15 -91 7 -87 22 -118 46 -97 9 7 18 25 22 40 12 54 -60 282 -134 429 -34 68 -29 75 32 42 20 -11 50 -20 67 -20 l30 0 0 285 c0 255 -2 285 -16 285 -56 0 -220 124 -271 205 -32 52 -60 59 -69 18 -25 -113 -50 -159 -90 -169 -43 -11 -57 17 -49 97 3 37 3 78 0 92 -8 29 -37 40 -61 23z m338 -569 c-5 -85 -6 -88 -23 -70 -10 10 -47 65 -83 123 l-66 105 60 5 c44 4 65 11 82 28 l23 23 6 -63 c3 -35 4 -103 1 -151z m-41 -184 c34 -40 101 -172 92 -185 -5 -9 -110 -77 -130 -85 -10 -4 -13 25 -13 151 0 86 4 156 9 156 5 0 24 -17 42 -37z"/>
 <path d="M5755 3988 c-43 -56 -82 -107 -86 -112 -4 -5 -20 17 -36 48 -21 44 -32 56 -48 54 -34 -5 -30 -44 12 -111 l38 -62 0 -140 c0 -77 1 -258 3 -401 l2 -262 23 -6 c13 -3 44 -24 70 -46 57 -50 103 -70 163 -70 65 0 100 24 135 95 22 45 31 80 36 141 7 103 -4 127 -144 305 -96 121 -103 134 -103 175 0 73 60 224 89 224 4 0 31 -43 60 -96 56 -100 73 -116 97 -92 12 12 -1 42 -101 228 -64 118 -119 218 -124 223 -5 5 -42 -36 -86 -95z m140 -763 c-60 -170 -58 -170 -67 5 -5 85 -6 165 -3 178 5 21 10 17 52 -40 l46 -63 -28 -80z"/>
 <path d="M5264 4003 c-17 -21 -48 -68 -70 -105 -21 -37 -42 -68 -45 -68 -3 0 -14 16 -25 35 -18 35 -54 48 -54 21 0 -8 10 -45 23 -82 22 -68 22 -77 18 -450 l-3 -381 35 -7 c50 -9 107 -54 158 -125 25 -34 52 -61 62 -61 11 0 25 18 42 55 19 45 28 55 48 55 30 0 37 -20 29 -87 -5 -48 -5 -48 16 -30 84 75 83 297 -3 377 -51 48 -133 16 -167 -64 l-13 -31 -7 40 c-4 22 -7 139 -7 260 -1 196 1 228 20 291 23 77 58 132 77 120 7 -4 31 -41 53 -82 36 -65 43 -73 60 -64 10 6 19 14 19 18 -1 14 -218 396 -227 399 -5 2 -23 -14 -39 -34z"/>
 <path d="M4655 4016 c-16 -8 -65 -49 -107 -92 l-77 -79 -4 -365 c-2 -201 -7 -377 -12 -392 -7 -26 -4 -29 39 -48 71 -30 165 -97 231 -165 l60 -62 105 16 c145 22 146 22 119 96 -19 53 -22 88 -26 290 -4 187 5 453 19 560 4 24 -206 219 -258 241 -41 17 -51 17 -89 0z m125 -519 l0 -334 -55 -59 -56 -59 3 316 4 316 49 76 c28 42 51 77 53 77 1 0 2 -150 2 -333z"/>
 </g>
<g id="layer103" fill="#690506" stroke="none">
 <path d="M1280 8033 c0 -17 22 -90 36 -120 8 -17 14 -37 14 -45 1 -7 9 -31 20 -53 11 -22 19 -46 20 -52 0 -14 42 -122 72 -189 10 -22 18 -47 18 -55 0 -8 6 -23 14 -34 7 -11 19 -37 26 -58 7 -22 18 -51 26 -65 21 -41 18 -46 -38 -84 -29 -19 -89 -59 -133 -89 -88 -59 -235 -149 -244 -149 -11 -1 -51 -38 -51 -48 0 -11 109 -55 240 -98 85 -28 391 -101 466 -110 27 -4 54 -9 60 -13 8 -4 4 -37 -13 -110 -13 -58 -21 -112 -18 -121 9 -27 47 -39 167 -51 62 -6 115 -15 118 -20 3 -5 42 -9 85 -10 88 -1 378 -24 495 -39 41 -5 176 -14 300 -20 124 -7 252 -16 285 -20 33 -5 197 -16 365 -25 235 -11 548 -15 1360 -15 1072 1 1283 6 1746 44 99 8 252 17 338 21 87 3 162 7 167 10 13 9 326 36 404 36 39 0 104 6 145 14 41 7 128 19 193 26 85 8 124 16 140 29 l22 18 -22 106 c-12 59 -20 113 -17 120 3 9 41 21 97 31 149 27 425 100 527 140 52 20 103 39 113 42 32 10 18 28 -55 72 -94 57 -139 85 -189 119 -22 15 -51 34 -64 42 -82 52 -155 105 -155 113 0 20 24 87 30 87 5 0 11 12 15 27 3 15 14 45 24 68 10 22 30 74 45 115 15 41 34 89 42 105 7 17 16 44 20 60 3 17 12 39 19 50 6 11 17 42 24 70 7 27 16 54 21 60 15 19 22 75 10 75 -6 0 -48 -13 -93 -29 -166 -58 -421 -117 -722 -166 -244 -40 -426 -57 -656 -60 -119 -1 -222 -6 -228 -9 -21 -13 -11 -46 19 -65 65 -39 239 -64 575 -81 116 -6 220 -13 233 -16 44 -9 20 -60 -41 -83 -81 -31 -1131 -108 -1582 -116 -148 -3 -306 -10 -350 -15 -102 -13 -1620 -13 -1644 -1 -9 5 -147 12 -306 16 -160 3 -357 10 -440 15 -82 5 -197 12 -255 15 -191 10 -831 67 -886 80 -32 7 -74 44 -74 66 0 24 14 27 185 34 479 20 678 63 648 141 -5 14 -15 16 -63 11 -61 -7 -337 6 -515 24 -353 34 -835 133 -1065 219 -60 22 -70 24 -70 13z"/>
 </g>
<g id="layer104" fill="#9f1116" stroke="none">
 <path d="M1613 7930 c16 -10 17 -48 17 -555 0 -357 -3 -545 -10 -545 -5 0 -10 -4 -10 -9 0 -4 44 -16 98 -26 143 -25 133 -12 106 -134 -13 -58 -22 -112 -19 -121 8 -27 46 -38 162 -50 59 -6 117 -15 128 -20 31 -14 229 -18 210 -4 -13 10 -15 76 -15 522 0 478 1 511 18 515 9 3 3 5 -15 6 -64 2 -133 45 -133 82 0 25 12 27 220 39 102 6 228 15 280 21 94 11 128 19 78 19 -24 0 -26 4 -30 50 -3 46 -1 49 22 52 14 2 -29 7 -95 11 -314 21 -586 62 -1000 152 -24 5 -27 4 -12 -5z"/>
 <path d="M8230 7929 c-93 -23 -342 -70 -490 -93 -151 -23 -240 -32 -495 -52 -68 -6 -83 -9 -60 -15 17 -3 24 -7 18 -8 -8 -1 -13 -17 -13 -46 0 -36 -4 -45 -17 -46 -49 -3 108 -20 322 -34 132 -9 257 -20 277 -24 49 -11 96 -40 119 -71 14 -20 109 -414 177 -737 2 -13 12 -23 21 -23 21 0 158 27 196 39 25 8 26 9 8 10 l-23 1 0 543 c0 409 3 546 12 555 14 14 2 15 -52 1z"/>
 <path d="M6935 7780 c3 -5 27 -9 53 -9 42 1 44 2 17 9 -45 11 -77 11 -70 0z"/>
 <path d="M6795 7443 c-38 -1 -151 -7 -250 -13 -99 -6 -297 -13 -440 -16 -143 -2 -296 -9 -340 -14 -103 -13 -1620 -13 -1644 -1 -9 5 -150 13 -312 16 l-294 7 0 -173 c0 -96 -1 -250 -3 -344 -1 -93 0 -250 3 -347 5 -155 8 -177 23 -182 9 -2 -6 -3 -34 -2 -29 2 -57 0 -64 -4 -29 -18 434 -25 1565 -25 889 0 1244 4 1370 13 94 8 239 19 323 25 85 7 150 15 146 20 -4 4 0 7 9 7 16 0 17 27 17 302 0 166 2 299 4 297 2 -2 7 -69 10 -149 9 -194 10 -200 48 -200 l30 0 -6 133 c-16 327 -16 326 -58 378 -28 35 -29 37 -26 150 l3 114 55 6 55 6 -60 -1 c-33 0 -91 -1 -130 -3z"/>
 <path d="M3373 7423 c9 -2 25 -2 35 0 9 3 1 5 -18 5 -19 0 -27 -2 -17 -5z"/>
 <path d="M2590 7223 c0 -10 -5 -76 -10 -148 -21 -277 -15 -326 46 -374 55 -43 138 -11 170 66 15 35 41 420 31 447 -4 9 -17 16 -30 16 -23 0 -24 -4 -31 -77 -3 -42 -6 -96 -6 -120 l0 -44 -57 3 -58 3 4 123 3 122 -31 0 c-23 0 -31 -5 -31 -17z m160 -363 c0 -41 -5 -56 -25 -75 -29 -30 -49 -31 -75 -5 -15 15 -20 33 -20 75 l0 55 60 0 60 0 0 -50z"/>
 <path d="M7074 7215 c-61 -27 -76 -112 -59 -330 11 -142 48 -205 122 -207 44 -1 71 11 94 43 33 47 37 85 27 241 -10 170 -29 225 -84 252 -41 19 -58 19 -100 1z m82 -83 c13 -9 27 -40 29 -67 1 -11 5 -73 9 -139 7 -114 6 -120 -15 -142 -27 -29 -50 -30 -72 -6 -19 21 -24 51 -32 207 -5 102 -4 112 15 133 21 22 46 28 66 14z"/>
 <path d="M2987 7138 c-4 -46 -10 -152 -13 -235 l-7 -153 -48 0 -49 0 0 -39 c0 -38 0 -38 46 -45 26 -3 82 -6 125 -6 l79 0 0 40 0 40 -46 0 -47 0 6 83 c4 45 9 151 13 235 6 134 5 152 -9 152 -8 0 -22 2 -30 6 -11 4 -15 -11 -20 -78z"/>
 <path d="M3206 7123 c-18 -241 -18 -347 -1 -391 22 -54 57 -82 104 -82 44 0 74 20 105 69 22 34 24 52 31 221 4 100 8 200 10 221 4 38 3 39 -30 39 l-33 0 -7 -120 -7 -120 -59 0 -58 0 6 120 6 120 -30 0 -31 0 -6 -77z m151 -249 c21 -6 22 -11 16 -48 -10 -64 -20 -83 -48 -90 -45 -11 -65 16 -65 86 l0 58 38 0 c20 0 47 -3 59 -6z"/>
 <path d="M8658 7109 c19 -21 22 -37 22 -101 0 -51 -4 -78 -12 -82 -31 -14 44 9 105 32 37 15 67 31 67 37 0 6 -37 33 -82 60 -46 27 -92 56 -103 64 -16 13 -16 11 3 -10z"/>
 <path d="M1182 7080 c-34 -22 -66 -40 -70 -40 -12 -1 -52 -38 -52 -48 0 -11 2 -12 115 -53 44 -16 72 -23 63 -15 -14 10 -18 29 -18 91 0 62 3 80 18 91 34 26 6 13 -56 -26z"/>
 <path d="M2333 6453 c9 -2 25 -2 35 0 9 3 1 5 -18 5 -19 0 -27 -2 -17 -5z"/>
 <path d="M7039 6407 c5 -5 21 -7 37 -5 27 3 26 4 -8 9 -22 3 -34 1 -29 -4z"/>
 <path d="M6903 6403 c15 -2 39 -2 55 0 15 2 2 4 -28 4 -30 0 -43 -2 -27 -4z"/>
 <path d="M3240 6386 c0 -2 11 -6 25 -8 14 -3 25 -1 25 3 0 5 -11 9 -25 9 -14 0 -25 -2 -25 -4z"/>
 </g>
<g id="layer105" fill="#d21c25" stroke="none">
 <path d="M1810 7890 c0 -5 10 -10 23 -13 l22 -6 -5 -541 c-4 -442 -7 -542 -19 -549 -7 -5 -9 -10 -4 -12 6 -2 0 -47 -14 -108 -13 -58 -21 -112 -18 -122 6 -18 40 -34 90 -42 l30 -5 0 306 0 307 43 200 c24 110 51 214 61 230 34 61 91 78 326 102 60 7 64 8 28 11 l-43 3 0 70 0 69 33 1 c62 1 -3 16 -171 39 -89 12 -212 32 -272 44 -61 13 -110 20 -110 16z"/>
 <path d="M7905 7864 c-99 -18 -228 -38 -287 -45 -60 -7 -108 -17 -108 -21 0 -5 19 -6 43 -3 23 2 34 2 24 -1 -16 -5 -18 -15 -15 -75 l3 -69 -45 -1 c-73 -1 -35 -7 115 -18 120 -9 148 -15 195 -38 33 -17 61 -40 72 -58 13 -24 76 -281 141 -583 10 -42 11 48 9 435 l-3 489 28 11 c40 16 28 14 -172 -23z"/>
 <path d="M4031 7406 c11 -9 90 -16 84 -6 -3 5 -25 10 -47 10 -23 0 -39 -2 -37 -4z"/>
 <path d="M5770 7400 c-50 -6 -47 -7 37 -8 52 -1 94 2 98 8 7 11 -45 11 -135 0z"/>
 <path d="M4227 7383 c-4 -3 -7 -50 -7 -104 l0 -97 -29 -7 c-15 -3 -33 -5 -40 -3 -8 2 -13 -28 -15 -102 -5 -126 -9 -360 -7 -412 l1 -38 45 0 45 0 0 -130 c0 -116 2 -130 18 -132 9 -1 -14 -4 -53 -8 -38 -4 331 -6 820 -6 490 0 836 3 770 6 -66 3 -105 7 -87 8 l32 2 0 509 0 509 -31 6 c-42 8 -1454 8 -1462 -1z m-7 -484 c0 -148 -3 -190 -12 -186 -14 4 -14 13 -10 247 1 79 6 130 12 130 6 0 10 -70 10 -191z"/>
 <path d="M2590 7223 c0 -10 -5 -76 -10 -148 -21 -277 -15 -326 46 -374 55 -43 138 -11 170 66 15 35 41 420 31 447 -4 9 -17 16 -30 16 -23 0 -24 -4 -31 -77 -3 -42 -6 -96 -6 -120 l0 -44 -57 3 -58 3 4 123 3 122 -31 0 c-23 0 -31 -5 -31 -17z m160 -363 c0 -41 -5 -56 -25 -75 -29 -30 -49 -31 -75 -5 -15 15 -20 33 -20 75 l0 55 60 0 60 0 0 -50z"/>
 <path d="M7073 7210 c-60 -36 -67 -64 -60 -252 5 -141 9 -173 27 -207 57 -114 191 -93 220 34 4 18 3 100 -2 181 -11 167 -26 211 -81 244 -40 25 -64 25 -104 0z m83 -78 c24 -16 32 -53 39 -185 6 -118 5 -141 -9 -162 -20 -31 -56 -33 -81 -4 -16 16 -21 46 -28 164 -9 128 -8 148 7 170 16 24 49 33 72 17z"/>
 <path d="M2987 7138 c-4 -46 -10 -152 -13 -235 l-7 -153 -48 0 -49 0 0 -39 c0 -38 0 -38 46 -45 26 -3 82 -6 125 -6 l79 0 0 40 0 40 -46 0 -47 0 6 83 c4 45 9 151 13 235 6 134 5 152 -9 152 -8 0 -22 2 -30 6 -11 4 -15 -11 -20 -78z"/>
 <path d="M6755 7188 c-32 -25 -55 -74 -55 -118 0 -25 4 -30 25 -30 20 0 28 8 41 40 18 43 42 57 74 40 32 -17 37 -42 44 -230 9 -226 10 -230 47 -230 35 0 33 -17 18 240 -5 102 -15 199 -20 217 -6 18 -26 46 -45 63 -42 37 -89 40 -129 8z"/>
 <path d="M3206 7123 c-18 -241 -18 -347 -1 -391 33 -82 112 -108 174 -57 52 44 60 87 63 315 l3 205 -26 3 -27 3 -7 -120 -7 -121 -59 0 -58 0 6 120 6 120 -30 0 -31 0 -6 -77z m151 -249 c20 -6 22 -11 16 -53 -8 -60 -18 -79 -49 -87 -42 -11 -64 19 -64 88 l0 58 38 0 c20 0 47 -3 59 -6z"/>
 <path d="M6416 7193 l-38 -4 6 -182 c3 -100 9 -224 12 -274 l6 -93 48 0 c26 0 80 3 121 6 l74 7 -3 39 -4 39 -88 -3 -89 -3 -3 73 -3 72 35 0 c68 0 80 8 80 52 l0 40 -60 -4 -60 -3 0 76 0 77 85 7 85 7 0 39 0 39 -82 -2 c-46 -1 -100 -3 -122 -5z"/>
 <path d="M3594 7176 c-17 -8 -41 -31 -54 -51 -21 -34 -24 -56 -31 -196 -8 -166 -4 -200 31 -249 38 -54 122 -57 167 -5 21 24 51 101 42 109 -2 2 -16 6 -31 10 -22 5 -28 2 -34 -16 -18 -60 -71 -77 -100 -33 -25 38 -16 305 11 335 33 37 87 17 97 -35 2 -14 12 -21 36 -23 28 -3 32 0 32 20 -1 31 -32 99 -57 120 -27 25 -73 30 -109 14z"/>
 <path d="M6074 7175 c-4 -8 -4 -93 0 -188 3 -94 6 -214 6 -264 l0 -93 73 0 c54 0 80 5 104 20 82 50 94 191 22 262 l-29 29 30 119 c17 65 30 121 30 124 0 3 -13 6 -30 6 -32 0 -29 7 -65 -140 -21 -89 -32 -110 -53 -110 -17 0 -20 12 -26 117 -4 75 -11 120 -19 125 -19 12 -37 9 -43 -7z m170 -337 c21 -30 20 -81 -1 -101 -10 -8 -34 -18 -54 -22 l-36 -7 -7 56 c-10 80 -3 96 44 96 29 0 43 -6 54 -22z"/>
 <path d="M3826 7103 c-12 -142 -7 -372 8 -401 19 -36 56 -70 81 -73 51 -7 95 12 120 51 22 36 25 52 30 192 3 84 8 188 10 231 l5 77 -34 0 c-29 0 -34 -4 -39 -30 -4 -16 -4 -37 -1 -45 4 -9 3 -49 -1 -90 l-7 -75 -54 0 -54 0 0 120 0 120 -29 0 c-28 0 -28 -1 -35 -77z m153 -253 c22 0 23 -2 19 -56 -5 -61 -23 -84 -64 -84 -34 0 -54 37 -54 99 l0 54 38 -7 c20 -3 48 -6 61 -6z"/>
 <path d="M5786 7173 l-29 -5 6 -221 c6 -238 9 -257 60 -297 41 -32 90 -37 125 -11 56 39 64 74 63 264 0 95 -3 196 -7 225 -6 50 -8 52 -36 52 l-30 0 4 -120 3 -120 -56 0 -56 0 -7 103 c-4 56 -4 110 0 120 3 9 2 16 -2 16 -5 -1 -22 -4 -38 -6z m162 -372 c4 -50 -25 -91 -64 -91 -31 0 -42 19 -50 84 l-7 57 59 -3 59 -3 3 -44z"/>
 <path d="M8786 7021 c17 -29 17 -30 -7 -50 l-24 -21 42 18 c24 9 43 22 43 27 0 6 -16 20 -36 33 l-36 24 18 -31z"/>
 <path d="M1083 7021 c-30 -25 -29 -35 2 -49 33 -15 42 -15 27 0 -17 17 -15 45 6 57 13 8 14 10 2 10 -8 0 -25 -8 -37 -18z"/>
 <path d="M8080 6789 c0 -5 11 -9 25 -9 14 0 25 2 25 4 0 2 -11 6 -25 8 -14 3 -25 1 -25 -3z"/>
 </g>
<g id="layer106" fill="#fdfcfc" stroke="none">
 <path d="M2590 7223 c0 -10 -5 -76 -10 -148 -21 -277 -15 -326 46 -374 55 -43 138 -11 170 66 15 35 41 420 31 447 -4 9 -17 16 -30 16 -23 0 -24 -4 -31 -77 -3 -42 -6 -96 -6 -120 l0 -44 -57 3 -58 3 4 123 3 122 -31 0 c-23 0 -31 -5 -31 -17z m160 -363 c0 -41 -5 -56 -25 -75 -29 -30 -49 -31 -75 -5 -15 15 -20 33 -20 75 l0 55 60 0 60 0 0 -50z"/>
 <path d="M7073 7210 c-60 -36 -67 -64 -60 -252 5 -141 9 -173 27 -207 57 -114 191 -93 220 34 4 18 3 100 -2 181 -11 167 -26 211 -81 244 -40 25 -64 25 -104 0z m83 -78 c24 -16 32 -53 39 -185 6 -118 5 -141 -9 -162 -20 -31 -56 -33 -81 -4 -16 16 -21 46 -28 164 -9 128 -8 148 7 170 16 24 49 33 72 17z"/>
 <path d="M2987 7138 c-4 -46 -10 -152 -13 -235 l-7 -153 -48 0 -49 0 0 -39 c0 -38 0 -38 46 -45 26 -3 82 -6 125 -6 l79 0 0 40 0 40 -46 0 -47 0 6 83 c4 45 9 151 13 235 6 134 5 152 -9 152 -8 0 -22 2 -30 6 -11 4 -15 -11 -20 -78z"/>
 <path d="M6755 7188 c-32 -25 -55 -74 -55 -118 0 -25 4 -30 25 -30 20 0 28 8 41 40 18 43 42 57 74 40 32 -17 37 -42 44 -230 9 -226 10 -230 47 -230 35 0 33 -17 18 240 -5 102 -15 199 -20 217 -6 18 -26 46 -45 63 -42 37 -89 40 -129 8z"/>
 <path d="M3206 7123 c-18 -241 -18 -347 -1 -391 33 -82 112 -108 174 -57 52 44 60 87 63 315 l3 205 -26 3 -27 3 -7 -120 -7 -121 -59 0 -58 0 6 120 6 120 -30 0 -31 0 -6 -77z m151 -249 c20 -6 22 -11 16 -53 -8 -60 -18 -79 -49 -87 -42 -11 -64 19 -64 88 l0 58 38 0 c20 0 47 -3 59 -6z"/>
 <path d="M6416 7193 l-38 -4 6 -182 c3 -100 9 -224 12 -274 l6 -93 48 0 c26 0 80 3 121 6 l74 7 -3 39 -4 39 -88 -3 -89 -3 -3 73 -3 72 35 0 c68 0 80 8 80 52 l0 40 -60 -4 -60 -3 0 76 0 77 85 7 85 7 0 39 0 39 -82 -2 c-46 -1 -100 -3 -122 -5z"/>
 <path d="M3594 7176 c-17 -8 -41 -31 -54 -51 -21 -34 -24 -56 -31 -196 -8 -166 -4 -200 31 -249 38 -54 122 -57 167 -5 21 24 51 101 42 109 -2 2 -16 6 -31 10 -22 5 -28 2 -34 -16 -18 -60 -71 -77 -100 -33 -25 38 -16 305 11 335 33 37 87 17 97 -35 2 -14 12 -21 36 -23 28 -3 32 0 32 20 -1 31 -32 99 -57 120 -27 25 -73 30 -109 14z"/>
 <path d="M6241 7153 c-5 -21 -17 -67 -26 -103 -22 -91 -31 -110 -55 -110 -17 0 -20 7 -20 53 0 28 -3 82 -7 120 -6 66 -6 67 -36 67 l-30 0 6 -172 c4 -95 7 -219 7 -275 l0 -103 73 0 c54 0 80 5 104 20 82 50 94 191 22 262 l-29 29 30 119 c17 65 30 121 30 124 0 3 -13 6 -30 6 -25 0 -30 -5 -39 -37z m3 -315 c21 -30 20 -81 -1 -101 -10 -8 -34 -18 -54 -22 l-36 -7 -7 48 c-3 26 -6 60 -6 75 0 28 2 29 44 29 35 0 48 -5 60 -22z"/>
 <path d="M3826 7103 c-12 -142 -7 -372 8 -401 52 -101 160 -99 210 3 17 34 20 63 20 254 l1 216 -27 3 -28 3 0 -68 c0 -37 -3 -92 -6 -120 l-7 -53 -53 0 -54 0 0 120 0 120 -29 0 c-28 0 -28 -1 -35 -77z m153 -253 c22 0 23 -2 19 -56 -5 -61 -23 -84 -64 -84 -34 0 -54 37 -54 99 l0 54 38 -7 c20 -3 48 -6 61 -6z"/>
 <path d="M5942 7060 l3 -120 -56 0 -57 0 -7 115 -7 115 -31 0 -30 0 6 -214 c6 -227 13 -261 59 -303 53 -49 134 -31 170 37 15 30 18 59 18 216 0 100 -3 202 -6 228 -6 43 -9 46 -36 46 l-30 0 4 -120z m8 -258 c0 -59 -21 -92 -59 -92 -39 0 -54 22 -59 86 l-4 54 61 0 61 0 0 -48z"/>
 <path d="M4137 7073 c-4 -54 -7 -178 -7 -275 l0 -178 81 0 c78 0 82 1 114 33 45 45 55 89 55 256 0 127 -3 150 -21 188 -27 56 -61 73 -147 73 l-69 0 -6 -97z m144 6 c34 -18 40 -54 33 -202 -8 -162 -15 -177 -86 -177 l-41 0 6 98 c4 53 7 141 7 195 l0 97 31 0 c17 0 39 -5 50 -11z"/>
 <path d="M4540 7163 c-23 -9 -61 -45 -75 -74 -19 -36 -31 -311 -16 -365 35 -128 161 -148 219 -34 20 40 22 58 22 202 0 170 -7 204 -52 245 -25 24 -72 36 -98 26z m76 -114 c24 -48 17 -298 -10 -328 -23 -25 -53 -27 -78 -4 -16 14 -18 34 -18 167 0 171 8 196 60 196 23 0 33 -7 46 -31z"/>
 <path d="M4963 7163 c-10 -3 -13 -69 -13 -279 l0 -275 122 3 c133 3 138 6 124 64 -6 23 -10 24 -96 24 l-90 0 0 70 0 70 60 0 60 0 0 45 0 45 -60 0 -60 0 0 75 0 75 90 0 90 0 0 45 0 45 -107 -1 c-60 0 -114 -3 -120 -6z"/>
 <path d="M5536 7143 c-7 -34 -76 -499 -76 -513 0 -5 13 -10 29 -10 34 0 31 -11 61 195 12 76 22 141 24 142 1 2 15 -68 31 -154 15 -87 30 -164 33 -170 4 -14 62 -18 62 -5 0 9 -88 488 -95 520 -4 16 -13 22 -34 22 -24 0 -30 -5 -35 -27z"/>
 </g>

</svg>